<?xml version="1.0" encoding="UTF-8"?>
<!DOCTYPE svg PUBLIC "-//W3C//DTD SVG 1.1//EN" "http://www.w3.org/Graphics/SVG/1.1/DTD/svg11.dtd">
<!-- Creator: CorelDRAW 2020 (64-Bit) -->
<svg xmlns="http://www.w3.org/2000/svg" xml:space="preserve" width="200mm" height="200mm" version="1.1" style="shape-rendering:geometricPrecision; text-rendering:geometricPrecision; image-rendering:optimizeQuality; fill-rule:evenodd; clip-rule:evenodd"
viewBox="0 0 20000 20000"
 xmlns:xlink="http://www.w3.org/1999/xlink"
 xmlns:xodm="http://www.corel.com/coreldraw/odm/2003">
 <defs>
  <style type="text/css">
   <![CDATA[
    .fil0 {fill:#FEFEFE;fill-rule:nonzero}
   ]]>
  </style>
 </defs>
 <g id="Слой_x0020_1">
  <metadata id="CorelCorpID_0Corel-Layer"/>
  <g id="_1919837173456">
   <g>
    <path class="fil0" d="M17464.79 2682.66l-14944.77 0c-1393.7,0 -2527.61,1133.91 -2527.61,2527.61l0 9594.66c0,1393.7 1133.91,2527.61 2527.61,2527.61l14944.77 0c1393.7,0 2527.61,-1133.91 2527.61,-2527.61l0 -9594.66c0,-1393.7 -1133.91,-2527.61 -2527.61,-2527.61zm-394.89 1630.43l-7077.5 5467.29 -7077.49 -5467.29 14154.99 0zm394.89 11389.13l-14944.77 0c-494.67,0 -897.17,-402.5 -897.17,-897.17l-0.01 -9429.78 7871.19 6080.42c146.74,113.37 322.61,170 498.37,170 175.76,0 351.63,-56.63 498.37,-170l7871.2 -6080.42 0 9429.66c0,494.79 -402.5,897.29 -897.18,897.29z"/>
   </g>
   <g>
   </g>
   <g>
   </g>
   <g>
   </g>
   <g>
   </g>
   <g>
   </g>
   <g>
   </g>
   <g>
   </g>
   <g>
   </g>
   <g>
   </g>
   <g>
   </g>
   <g>
   </g>
   <g>
   </g>
   <g>
   </g>
   <g>
   </g>
   <g>
   </g>
  </g>
 </g>
</svg>
