<?xml version="1.0" encoding="UTF-8"?>
<!DOCTYPE svg PUBLIC "-//W3C//DTD SVG 1.1//EN" "http://www.w3.org/Graphics/SVG/1.1/DTD/svg11.dtd">
<!-- Creator: CorelDRAW 2020 (64-Bit) -->
<svg xmlns="http://www.w3.org/2000/svg" xml:space="preserve" width="210mm" height="297mm" version="1.1" style="shape-rendering:geometricPrecision; text-rendering:geometricPrecision; image-rendering:optimizeQuality; fill-rule:evenodd; clip-rule:evenodd"
viewBox="0 0 21000 29700"
 xmlns:xlink="http://www.w3.org/1999/xlink"
 xmlns:xodm="http://www.corel.com/coreldraw/odm/2003">
 <defs>
  <style type="text/css">
   <![CDATA[
    .fil0 {fill:#FEFEFE}
    .fil1 {fill:#FEFEFE;fill-rule:nonzero}
   ]]>
  </style>
 </defs>
 <g id="Слой_x0020_1">
  <metadata id="CorelCorpID_0Corel-Layer"/>
  <path class="fil0" d="M10553.56 5227.99c5415.64,0 9805.88,4390.24 9805.88,9805.88 0,5415.64 -4390.24,9805.88 -9805.88,9805.88 -5415.64,0 -9805.88,-4390.24 -9805.88,-9805.88 0,-5415.64 4390.24,-9805.88 9805.88,-9805.88zm0 1586.73c4539.31,0 8219.15,3679.84 8219.15,8219.15 0,4539.31 -3679.84,8219.15 -8219.15,8219.15 -4539.31,0 -8219.15,-3679.84 -8219.15,-8219.15 0,-4539.31 3679.84,-8219.15 8219.15,-8219.15z"/>
  <path class="fil1" d="M8502.88 16725.57l-189.89 2670.94c271.68,0 389.36,-116.71 530.46,-256.86l1273.77 -1217.32 2639.36 1932.88c484.06,269.78 825.1,127.72 955.68,-445.31l1732.47 -8118.04 0.48 -0.47c153.54,-715.57 -258.77,-995.38 -730.4,-819.84l-10183.41 3898.78c-695,269.78 -684.48,657.21 -118.15,832.76l2603.49 809.79 6047.39 -3783.99c284.6,-188.45 543.37,-84.18 330.52,104.28l-4891.77 4392.4z"/>
 </g>
</svg>
