<?xml version="1.0" encoding="UTF-8"?>
<!DOCTYPE svg PUBLIC "-//W3C//DTD SVG 1.1//EN" "http://www.w3.org/Graphics/SVG/1.1/DTD/svg11.dtd">
<!-- Creator: CorelDRAW 2020 (64-Bit) -->
<svg xmlns="http://www.w3.org/2000/svg" xml:space="preserve" width="200mm" height="200mm" version="1.1" style="shape-rendering:geometricPrecision; text-rendering:geometricPrecision; image-rendering:optimizeQuality; fill-rule:evenodd; clip-rule:evenodd"
viewBox="0 0 20000 20000"
 xmlns:xlink="http://www.w3.org/1999/xlink"
 xmlns:xodm="http://www.corel.com/coreldraw/odm/2003">
 <defs>
  <style type="text/css">
   <![CDATA[
    .fil0 {fill:#FEFEFE}
   ]]>
  </style>
 </defs>
 <g id="Слой_x0020_1">
  <metadata id="CorelCorpID_0Corel-Layer"/>
  <path class="fil0" d="M16984.21 2974.75c-1855.09,-1857.27 -4322.21,-2880.54 -6950.54,-2881.63 -5415.94,0 -9823.71,4407.66 -9825.89,9825.04 -0.73,1731.77 451.66,3422.26 1311.56,4912.34l-1393.98 5091.58 5208.86 -1366.39c1435.25,782.92 3051.07,1195.5 4695.46,1195.99l4.1 0c5415.33,0 9823.59,-4408.02 9825.65,-9825.64 1.09,-2625.55 -1020.01,-5094.12 -2875.23,-6951.28l0.01 -0.01zm-6950.54 15117.53l-3.39 0c-1465.39,-0.6 -2902.58,-394.42 -4156.66,-1138.37l-298.09 -177.06 -3091.01 810.87 825.04 -3013.68 -194.25 -308.98c-817.54,-1300.31 -1249.23,-2803.21 -1248.51,-4346.3 1.69,-4502.79 3665.4,-8166.14 8170.13,-8166.14 2181.38,0.73 4231.93,851.31 5773.81,2395 1541.88,1543.69 2390.51,3595.57 2389.79,5777.8 -1.93,4503.15 -3665.4,8166.86 -8166.86,8166.86zm4479.66 -6116.55c-245.44,-122.96 -1452.56,-716.72 -1677.66,-798.77 -224.87,-81.94 -388.74,-122.73 -552.24,122.96 -163.76,245.68 -634.19,798.78 -777.48,962.52 -143.3,163.86 -286.35,184.44 -531.91,61.48 -245.57,-122.83 -1036.6,-382.2 -1974.43,-1218.61 -729.8,-651 -1222.49,-1454.98 -1365.79,-1700.67 -143.06,-245.92 -1.21,-365.98 107.72,-501.04 265.77,-330.04 531.91,-676.06 613.72,-839.81 81.94,-163.87 40.91,-307.28 -20.57,-430.13 -61.24,-122.84 -552.24,-1331.29 -756.78,-1823.02 -199.45,-478.53 -401.68,-413.91 -552.49,-421.41 -143.04,-7.14 -306.8,-8.59 -470.55,-8.59 -163.63,0 -429.65,61.36 -654.75,307.29 -224.99,245.8 -859.16,839.68 -859.16,2048.13 0,1208.45 879.74,2375.86 1002.45,2539.74 122.73,163.87 1731.29,2643.7 4194.05,3707.04 585.77,253.18 1043.01,404.11 1399.67,517.27 588.19,186.86 1123.25,160.48 1546.36,97.31 471.75,-70.56 1452.44,-594 1657.21,-1167.43 204.53,-573.54 204.53,-1065.03 143.05,-1167.53 -61.24,-102.39 -225,-163.76 -470.43,-286.72l0.01 -0.01zm0 0z"/>
 </g>
</svg>
